<?xml version="1.0" encoding="UTF-8"?>
<svg id="Camada_1" data-name="Camada 1" xmlns="http://www.w3.org/2000/svg" viewBox="0 0 1398.22 496.2">
  <defs>
    <style>
      .cls-1 {
        fill: #2c2c2c;
      }
    </style>
  </defs>
  <path class="cls-1" d="M848.47,158.93c-23.45,28-47.87,43.8-75.52,65.98-1.18.94-2.42,1.63-2.05,3.44,9.43-2.57,22.55-3.7,32.48-2.99,32.24,2.33,55.98,25.04,55.52,57.98,13.92-1.73,26.77-.9,38.01-10.48,5.19-4.43,14.07-18.43,22-10.03,7.47,7.91,1.57,25.28,3.89,28.83,3.85,5.88,20.13-3.51,24.43-6.48,6.02-4.17,19.01-18.83,25.15-18.93,9.46-.16,7.63,8.82,6.22,15.31-2.55,11.72-9.4,22.33-12.69,33.8,13.51-13.49,26.05-35.32,42.96-44.53,31.92-17.4,9.62,36.78,8.31,48.31-.99,8.75-1.74,17.44,10,14.99,5.02-1.05,28.06-18.85,31.75-23.24,2.6-3.09,5.06-12.37,7.26-16.74,5.53-10.94,19.4-31.15,31.68-34.32,8.34-2.15,20.5.96,20.96,11.1.82,18.1-32.84,41.25-49.04,45.03-5.34,18.6-2.81,30.8,19.1,21.89,24.51-9.97,57.76-48.72,70.19-71.81,7.25-13.47,18.97-36.19,23.81-50.19.89-2.58-1.14-.76-1.72-.73-28.75,1.73-57.98,8.25-86.68,11.18-3.49-.45-6.43-2.01-7.36-5.58l3.74-4.89,96.05-10.95c1.48-1.25,2.41-2.98,3.38-4.62,9.24-15.59,15.52-38.85,25.42-53.58.81-1.2,1.3-2.69,2.9-3.15,4.58-.82,8.01,1.12,7.13,6.1-.81,4.54-10.34,20.38-13.01,26.07-1.51,3.21-12.82,26.54-11.82,27.67l48.01-5.48c5.97-7.19,21.56-48.41,26.68-51.57,4.91-3.03,10.61,1.21,7.61,6.87l-21.31,43.18,62.45-4.04c13.8,1.23,63.65-3.48,72.55,6.53,2.82,3.17.87,8.4-3.52,8.61-3.76.18-4.08-2.03-7.05-3.04-11.89-4.03-50.66-2.57-64.98-2.1-17.91.58-40.31,1.7-57.95,4.05-2.37.32-5.8.74-7.57,2.43-13.92,29.39-29.61,60.03-40.22,90.78-2.54,7.37-6.86,19.94-7.62,27.37-2.91,28.29,28.78,6.69,39.6-.88,1.68-6.59,1.99-12.99,3.79-19.72,4.06-15.15,18.16-38.63,33.2-44.79,10.34-4.23,22.94,0,21.06,13.04-1.75,12.09-20.53,32.14-29.75,40.26-2.42,2.13-15,10.64-15.52,11.49-2.44,3.99,2.23,10.23,6.22,11.78,19.51,7.59,49.72-15.38,63.76-27.81,3.6-3.19,21.94-22.99,24.02-23.01,2.93-.04,2.71,2.99,2.06,5.08-1.63,5.25-23.58,25.4-29.09,29.93-19.11,15.7-61.04,44.37-76.97,11.05-12.09,8.06-28.29,20.71-43.69,14.67-18.8-7.37-1.06-44.13,1.18-57.69-8.33,10.86-15.25,22.92-24.02,33.47-6.99,8.4-24.1,27.17-35.43,26.57-22.24-1.17-6.15-41.13-2.55-53.04-12.38,15.88-28.35,32.22-45.47,43.02-22.03,13.9-46.71,14.8-42.52-18.01-.96-.95-11.04,8.64-12.67,9.82-8.59,6.28-24.1,17.78-33.72,8.06-12.8-12.91,4.9-46.32,3.88-61.91-5.44.04-22.15,17.75-26.51,22.49-5.42,5.89-12.02,13.73-16.95,20.05-6.89,8.85-12.64,18.83-19.72,27.29-7.79,1.19-9.02-3.5-7.02-10.04,3.24-10.57,12.15-24.19,16.48-35.51,3.12-8.15,6.31-16.51,7.22-25.27-13.76,11.68-29.15,27.55-49.02,23.41-5.59,14.37-13.14,31.72-25.01,42.01-7.31,6.33-21.6,13.06-26.68.81-5.64-13.6,6.46-44.16,15.73-55.22l-26,2.98c-2.85,28.92-18.92,56.71-35.6,79.9-36.99,51.39-106.77,113.71-173.88,112.1-57.22-1.37-68.15-46.27-39.73-89.71,18.53-28.33,45.78-47.53,74.09-64.91l31.71-67.33c1.15-3.77-1.22-6.93,1.21-11.75,2.08-4.13,8.47-4.71,10.4-9.59l74.36-155.64c3.31-3.31,8.61-2.86,10.03,1.92,1.31,4.38-6.16,14.92-8.44,19.67-20.73,43.11-41.48,86.22-62.14,129.35l36.91-25.58c35.23-26.86,90.72-73.95,94.07-120.93,4.01-56.16-72.35-28.6-99.66-13.66-28.71,15.71-78.76,61.74-88.85,93.15-1.18,3.67.23,12.14-5.51,10.6-6.82-1.83-3.7-13.05-1.85-17.95,12.77-33.79,57.48-75.84,88.56-93.44,27.91-15.8,98.65-42.76,114.49.12,11.55,31.27-10.13,68.02-29.61,91.27ZM1242.89,208.36c-6.6,1.99-45.57,2.62-48.06,5.67-13.43,31.64-30.88,63.29-41.95,95.8-2.22,6.51-13.47,36.28,2.36,29.36,7.96-3.48,23.3-21.65,29.05-28.94,13.32-16.87,25.82-36.03,36.12-54.88,8.15-14.9,16.32-31.27,22.47-47.02ZM848.88,283.34c0-64.06-86.19-53.6-121.01-25.51l-29.97,64.52c34.38-18.06,71.87-31.02,110.63-35.86,13.41-1.67,26.91-1.92,40.35-3.15ZM1257.89,317.34l12.01-8.48c5.23-5.37,10.89-10.59,15.4-16.6,2.87-3.81,13.65-19.71,10.57-23.92-15.3,3.81-25.7,19.99-31.85,33.64-2.32,5.14-3.18,10.61-6.14,15.35ZM1108.75,269.49c-17.93-.9-29.25,22.82-35.85,36.86,1.64,1.65,24.12-15.48,26.54-17.95s13.42-16.32,9.32-18.9ZM909.89,278.35c-5.03-1.05-8.37,3.59-11.51,6.99-8.39,9.09-17.58,27.35-20.64,39.37-1.34,5.26-2.66,10.27-.75,15.53,11.96.79,24.15-17.52,29.07-27.21,6.38-12.57,6.59-20.89,3.82-34.68ZM776.54,408c25.65-25.12,56.95-65.43,67.61-99.89,1.03-3.33,3.96-12.43,3.77-15.3-.07-1.09-.45-1.81-1.49-2.22-54.18,2.78-107,15.62-154.07,42.73-8.37,16.86-17.36,33.45-25.66,50.34-4.29,8.75-8.02,20.26-12.62,28.38s-10.42,4.76-7.72-3.73c9.79-21.2,19.87-42.31,29.33-63.66.64-1.45,3.33-3.18,1.7-4.3-24.32,16.97-51.33,36.62-65.68,63.32-25.19,46.88,2.22,75.13,51.57,68.57,41.88-5.56,83.72-35.34,113.25-64.25Z"/>
  <path class="cls-1" d="M156.15,216.09c-4.44-4.56,8.49-15.17,11.72-19.27,27.34-34.73,64.87-91.68,75.54-134.46,11-44.13-15.69-59.78-55.73-47.73C126.71,33,43.21,119.23,24.95,179.91c-22.75,75.62,31.17,99.2,80.41,139.47,3.1,2.53,19.86,18.48,21.24,18.84,1.1.29,2.07-.06,2.99-.63,12.53-8.31,25.49-16.09,38.63-23.41,15.73-8.77,35.22-16.71,49.98-26.02,10.19-6.43,22.07-22.89,35.2-22.89,5.91,0,15.08,3.96,13.5,11.08l6.35-2.84c4.72,2.91,4.73,5.98,3.14,10.84-4.5,13.75-13.91,26.02-16.36,41.62-1.31,8.31-1.8,17.09,9.7,13.7,14.05-4.13,49.18-49.12,55.99-63,3.15-6.41,4.23-20.93,14.27-14.66,1.61,4.67,1.12,10.17,3.01,14.74,4.72,11.41,16.63,6.28,9.39,25.58-2.15,5.72-18.6,34.96-14.48,39.02,1.41.18,2.67-.09,4.02-.48,10.28-2.95,33.7-29.23,40.39-38.61,3.63-5.09,9.45-18.72,12.55-21.45,2.22-1.96,5.14-2.3,7.56-.49.56.83,1.1,1.78,1.3,2.77,1.08,5.59-9.99,23.93-12.57,31-2.35,6.45-11.21,30.47,3.49,24.49,11.79-4.8,44.4-49.56,53.07-61.92,15.42-22,28.25-44.74,40.18-68.82-24.51,1.71-48.36,9.12-72.5,13.58-4.89,1.63-9.02-5.15-7.04-9.07,1.08-2.15,6.91-3.17,9.34-3.7,24.11-5.26,49.95-6.61,74.19-11.81,5.04-9.14,9.47-18.67,13.88-28.12,3.06-6.57,7.25-19.98,10.93-25.07,4.31-5.97,11.96-3.37,10,3.99l-21.78,47.72c12.71-1.6,25.71-3.24,38.5-3.99,18.49-1.08,36.62-1.08,55-.02,10.06.58,34.85-1.93,30.6,14.42-4.77,2.89-7.33-1.27-10.52-2.5-16.47-6.36-72.66-2.72-92.08-.9-8.8.82-17.77,2.07-26.49,3.51-16.88,35.32-33.84,71.21-46.77,108.23-4.21,12.05-10.68,29.62-11.96,42.03-.61,5.84,3.43,15.93-4.01,17.07-10.75,1.64-4.29-21.31-2.98-27.05,5.53-24.23,16.39-47.14,23.7-70.79-13.15,17.27-24.79,35.98-39.48,52.01-5.8,6.33-20.6,21.75-29.05,22.03-16.07.53-11.31-23.17-9.48-33.04l-14.42,17.05c-7.97,6.44-21.76,21.54-32.94,15.82s-3.1-20.44.2-28.54c2.44-6,13.09-24.14,10.67-29.3-.42-.9-8.32-10-9-10-14.79,19.02-28.08,39.63-46.49,55.5-8.44,7.28-19.63,16.52-31.06,10.04-10.06-5.7-6.53-21.14-5.45-30.54-7.43,7.79-26.84,31.34-37.07,32.93-26.41,4.1-9.03-41.09.56-50.44.16-.76-.96-.64-1.48-.48-10.16,3.19-35.58,18.75-46.19,24.81-11.94,6.83-23.73,14.25-35.25,21.77-.39,1.64,7.77,10.87,9.34,13.48,40.01,66.16-62.39,148.34-121.65,136.65-38.63-7.62-10.94-50.15,3.71-67.74,26.47-31.77,60.13-57.54,93.51-81.53.26-1.07-13.45-13.63-15.52-15.43C53.43,288.68-4.26,266.19,11.36,189.32,25.34,120.5,118.11,22.31,185.68,3.64c43.63-12.06,77.69,5.77,68.92,54.92-7.18,40.25-63.08,125.85-92.19,155.8-1.79,1.85-3.7,4.35-6.26,1.73ZM250.6,277.57c-16.1,3.71-39.94,42.71-40.67,58.42-.19,4.12,2.54,3.8,5.68,2.59,10.17-3.92,42.24-40.57,45.75-51.25,2.6-7.91-3.13-11.52-10.76-9.76ZM114.54,445c26.36-25.88,37.58-65.99,6.85-93.62-22.32,16.4-44.46,33.29-64.51,52.46-9.77,9.33-20.06,19.99-28.38,30.62-13.05,16.67-38.37,53.04,2.89,50.88,27.96-1.46,63.37-20.9,83.16-40.33Z"/>
  <path d="M585.54,316c4.39-4.27,9.59-10.04,13.86-14.64,2.69-2.9,7.98-12.46,11.96-12.09,2.67.25,3.79,3.4,2.81,5.77-1.42,3.43-14.84,18.33-18.25,21.84-8.56,8.82-32.27,30.41-43.77,32.23-22.18,3.5-23.43-15.01-19.26-31.75-2.32-.63-1.67.54-2.29,1.26-8.43,9.83-15.42,20.08-26.79,27.14s-23.76,4.39-22.79-10.78c1.1-17.26,14.97-39.96,26.36-52.65,12.19-13.58,31.36-27.71,42.01-4.01l5.99-4.64c10.39,4.24-1.8,17.1-5.01,23.64-3.5,7.11-7.92,17.19-9.03,24.97-5.8,40.53,32.95,4.65,44.2-6.3ZM532.63,277.6c-14.15,2.38-34.72,33.82-39.22,46.78-8.61,24.79,5.09,15.51,16.49,5.49,8.27-7.27,32.62-35.36,31.96-45.95-.36-5.77-4.1-7.19-9.23-6.32Z"/>
  <path d="M411.54,251.56c1.16-.11,5.31,1.88,5.85,2.78,2.59,4.26-2.49,14.34-7.93,14-9.61-.6-5.16-16.11,2.08-16.77Z"/>
</svg>