<?xml version="1.0" encoding="UTF-8"?>
<svg id="Camada_1" xmlns="http://www.w3.org/2000/svg" version="1.1" viewBox="0 0 4096 4096">
  <!-- Generator: Adobe Illustrator 29.5.1, SVG Export Plug-In . SVG Version: 2.1.0 Build 141)  -->
  <path d="M2374.08,899.56c-1.04,8.7-1.19,19.25-7,23.87l-.23.19c-9.33,7.37-28.49,5.5-35.38-6.11-61.15-246.26-152.75-503.99-369.29-654.76-500.45-346.08-1325.16-55.44-1128.85,634.29,81.15,236.18,310.52,350.47,506.52,482.65,279.57,188,566.78,363.73,835.89,567.21,192.17,154.18,377.04,368.65,368.54,629.09-5.39,289.69-155.6,538.91-413.83,678.94-15.75,9.18-56.77,26.71-61.35,39.74,2.04,76.92-7.14,617.5,5.42,685.93.99,6.37,5.77,6.95,12.71,8.23,19.44,2.78,41.62,6.27,61.65,6.75,183.9,7.68,391.95,12.02,578.85-5.48,194.77-20.15,388.45-82.59,509.73-242.68,308.61-427.97,107.3-1111.75-455.04-1166.54-43.61-5.4-87.55-8.81-129.58-13.17-5.09-.55-10.91-1.42-15.1-4.03-15.52-11.24-10.24-46.29-5.55-59.93,5.24-13.48,22.37-13.89,34.55-17.18,13.61-2.6,25.6-6.45,38.43-11.33,247.53-89.37,380.82-274.96,406.29-516.84,44.08-327.54-135.59-608.67-472.91-643.54-170.93-19.26-382.9-8.96-554.96-1.14-22.61,3.38-16.53,39.12-16.53,39.12l3.03,395.25s-2.05,33.49-19.22,30.76c-6.65-.68-13.9-3.95-19.89-7.27-45.06-25.91-88.93-54.2-132.78-81.93-43.63-27.81-110.48-65.59-157.18-102.69-37.11-25.63-24.23-76.26-31.7-114.68-9.16-49.17-25.7-100.87-60.14-138.14-21.21-21.1-49.91-31.26-78.2-39.63-14.59-4.71-31.45-7.17-47.55-10.3-13.09-3.33-30.17-3.42-37.65-13.46-5.76-10.88-3.8-27.86-1.66-43.02.95-5.23,3.08-10.45,7.82-12.98,3.72-1.98,8.95-2.63,13.5-2.91l288.26-3.97s565.61-6.47,845.79,4.96c355.5,11.28,824.89,178.95,847.41,596.46,26.61,288.03-160.41,517.43-414.28,635.69-18.01,9.17-36.61,16.06-55.54,23.43-8.06,4.64-23.31,6.67-26.38,16.13-.3,12.59,12.21,18.75,24.63,24.45,15.88,6.48,36.44,10.18,54.54,13.18,161.27,32.31,315.97,99,432.78,195.68,353.94,289.86,344.14,837.35-5.64,1129.47-322.43,257.96-712.91,251.34-1105.5,247.71-147.88-.56-444.1-.14-444.1-.14l-445.83-10.79s18.44,3.94,0,0c-28.32-4.84-28.98-27.73-28.13-56.27.56-18.95,30.87-19.39,48.68-22.72,13.6-2.21,26.95-3.82,39.3-8.12,26.33-9.94,53.35-39.29,74.18-60.37,57.66-61.64,75.76-142.91,79.6-224.46,0,0,.61-1514.29.73-1517.81.52-15.41,2.8-31.87,20.71-22.05,23.9,12.29,0,0,0,0h0s285.28,195.79,316.56,243.14c9.7,14.68,14.47,44.4,15.22,64,.19,40.16.5,467.62.82,606.54.12,1.77,1.97,2.79,3.57,3.87,20.59,10.66,36.67-17.97,46.92-32.22,99.87-155.63,109.83-401.64,26.58-558.59-391.78-639.57-1752.79-792.6-1632.72-1743.71C618.83,63.3,1548.51-178.74,2093.74,135.87c74.47,37.78,152.74,87.41,225.45,136.11,14.21,10.01,27.94,21.75,37.53,36.1,5.86,8.73,10.1,18.78,12.19,29.64"/>
  <path d="M466.29,2274.19c4.55-17.24,6.91-31.38,19.66-32.75l.28.04c16.11,5.53,21.35,51.81,26.61,69.35,42.99,285.19,172.19,582.65,374.74,791.39,149.43,138.65,367.82,216,571.11,232.4,55.45,3.34,107.2,5.65,176.23,4.34,22.41-.43,26.19,30.75,24.13,49.41-1.15,17.43-13.68,34.11-31.29,35.17-453.85,27.31-758.45-43.61-1145.21-278.9-10.46-5.82-17.21-14.37-17.95-26.1"/>
</svg>