<?xml version="1.0" encoding="UTF-8"?>
<svg id="Camada_1" data-name="Camada 1" xmlns="http://www.w3.org/2000/svg" viewBox="0 0 3500 3500">
  <defs>
    <style>
      .cls-1 {
        fill: #1f2f3c;
        fill-rule: evenodd;
      }
    </style>
  </defs>
  <path class="cls-1" d="M1719.82,2875.76c136.97-279.28,373.53-494.32,709.6-645.03,24.62,32.75,67.15,49.65,109.58,39.55,57.1-13.53,92.32-70.86,78.74-127.86-2.9-12.3-7.82-23.54-14.34-33.54,5.63-3.58,11.34-7.98,18.99-14.49,87.15-74.27,152.46-169,192.18-274.91,60.81-162.28,30-263.2-13.89-301.31-66.92-58.08-119.27,41.93-75.18,90.21,21.39,23.43,58.73,27.12,76.57,4.62,10.12,167.03-69.67,342.62-192.54,467.92-1.67,1.65-3.26,3.26-4.82,4.75,59.73-103.9,93.03-240.26,91.32-368.63-2.55-190.64-74.97-281.65-135.28-303.06-91.87-32.63-105.31,90.86-40.76,122.63,31.29,15.43,71.07,4.19,80.29-26.01,80.2,172.84,65.43,393.86-17.35,575.18-24.85-20.93-59.02-30.24-93.08-22.13-48.97,11.64-81.88,55.49-81.65,103.7-377.04,158.94-667.8,410.37-872.29,754.39-38.03,63.97-216.29,312.62-106.97,351.91,38.43,13.81,79.42,1.64,116.34-26.64,117.43-89.9,109.93-239.41,174.56-371.25ZM1750.03,3474.87c476.28,0,907.51-193.04,1219.67-505.17,312.13-312.14,505.17-743.35,505.17-1219.73s-193.04-907.53-505.17-1219.67C2657.54,218.19,2226.31,25.1,1750.03,25.1s-907.59,193.09-1219.7,505.2C218.17,842.44,25.08,1273.69,25.08,1749.97s193.09,907.59,505.25,1219.73c312.11,312.13,743.37,505.17,1219.7,505.17ZM2987.46,2987.46c-316.71,316.68-754.21,512.54-1237.43,512.54s-920.78-195.86-1237.49-512.54C195.86,2670.75,0,2233.25,0,1749.97S195.86,829.25,512.54,512.54C829.25,195.86,1266.75,0,1750.03,0s920.72,195.86,1237.43,512.54c316.68,316.71,512.54,754.23,512.54,1237.43s-195.86,920.78-512.54,1237.49ZM1945.89,1133.84c88.18,247.76,122.66,529.99,103.41,846.7l.66.18-.89,3.74c-7.6,122.91-23.33,250.92-47.09,384.23,19.67-10.02,62.15-38.71,127.48-86.11,243.97-653.26,319.8-1404.54-95.01-2008.12-135.72,35.91-253.17,133.36-303.98,260.44-58.44-77.93-90.69-119.07-164.35-182.15-648.72,350.54-579.07,1462.74-146.18,1779.72-383.24-23.43-639.44,183.49-768.54,620.74,628.99,354.31,1046.94,42.78,1180.71-409.08-26.82-11.09-52.9-23.59-78.24-37.46l.26-1.04c-36.44,150.18-111.34,281.79-227.36,368.7-155.23,116.3-534.89,204.91-622.75-41.67-69.1-193.92,182.73-356.73,345.82-366.13,188.67-10.88,350.83,84.55,454.06,10.33-107.05-58.46-259.68-271.07-257.69-267.43-665.59-924.01,138.46-1890.11,499.67-875.59ZM1864.22,710.15c250.97-195.66,335.55,216.63,356.22,412.67,24.09,227.77,2.35,471.43-65.08,730.92-1.67-403.95-82.48-805.16-291.15-1143.59"/>
</svg>