<?xml version="1.0" encoding="UTF-8"?>
<svg id="Camada_1" data-name="Camada 1" xmlns="http://www.w3.org/2000/svg" viewBox="0 0 1043.38 1300.42">
  <defs>
    <style>
      .cls-1 {
        fill: gray;
      }

      .cls-2 {
        fill: #f0f0f0;
      }

      .cls-3 {
        fill: #838383;
      }

      .cls-4 {
        fill: #262626;
      }

      .cls-5 {
        fill: #ccc;
      }

      .cls-6 {
        fill: #d5d5d5;
      }

      .cls-7 {
        fill: #4c4c4c;
      }

      .cls-8 {
        fill: #909090;
      }

      .cls-9 {
        fill: #2f2f2f;
      }

      .cls-10 {
        fill: #dcdcdc;
      }

      .cls-11 {
        fill: #4f4f4f;
      }

      .cls-12 {
        fill: #f4f4f4;
      }

      .cls-13 {
        fill: #f5f5f5;
      }

      .cls-14 {
        fill: #2a2a2a;
      }

      .cls-15 {
        fill: #6a6a6a;
      }
    </style>
  </defs>
  <g>
    <path class="cls-7" d="M787.6,5.45c1.6.19,2.68.63,3.24,1.3,4.46-.6,11.84,2.02,14.26,5.84,67.07,35.9,40.55,139.76-40.84,138.14l-3.24-.65c-.21-.02-.44.03-.65,0-.38.28-.78.54-1.2.72-4.3,1.8-22.1-6.18-26.75-8.82-4.61-2.62-20.63-13.85-21.3-18.39-.07-.46-.05-.93,0-1.4-29.56-37.77-13.9-95.38,30.46-112.85.35-1.48,1.52-2.35,3.52-2.6l6.85-1.3h35.65Z"/>
    <path class="cls-2" d="M790.84,5.45v1.3c-1.1-.37-2.41-.26-3.24-1.3h3.24Z"/>
    <path class="cls-15" d="M3.94,749.47c1.18-4.33,2.72-8.6,4.6-12.81l1.87-.94c20.15-40.36,74.2-50.3,110.19-24.65,15.16,10.81,26.32,31.4,27.87,49.94.36.36.69.73.95,1.15,2.02,3.21-.19,18.82-1.12,23.34-12.45,59.88-82.14,78.43-125.64,37.22-5.11-4.84-11.23-11.13-12.25-18.25l-1.89-1.01-4.59-12.17"/>
    <path class="cls-9" d="M235.99,436.09c-11.92,16.47-32.91,27.2-53.15,28.54-84.27,5.58-110.34-113.4-30.63-142.52,69.72-25.47,126.79,54.53,83.78,113.98Z"/>
    <path class="cls-1" d="M463.5,185.1l-3.23,14.6c-4.22,14.25-14.08,28.91-25.94,37.93-51.08,38.83-125.86-4.6-117.23-68.33,10.03-74,111.15-87.71,140.47-19.46,5.66,13.17,5.31,21.4,5.93,35.25Z"/>
    <path class="cls-13" d="M11.09,724.4c-.21,3.62-2.37,7.97-.67,11.32-1.56,3.13-2.65,6.66-4.06,9.88l-3.71,13.47"/>
    <path class="cls-6" d="M764.27,150.73c-1.04-.02-2.7.39-3.24-.65,1.03.08,2.68-.44,3.24.65Z"/>
    <path class="cls-10" d="M701.39,1023.04c-13.85,7.9-27.71,15.96-41.48,24-8.95-14.95-16.68-30.73-26.59-45.09-.56-.81-.49-1.92-1.93-1.6l2.72-2.49c13.43-5.95,26.36-12.82,38.8-20.61l1.91-.24,26.58,46.05Z"/>
    <path class="cls-6" d="M921.64,333.12l-.51-1.44-.93-2.42c-14.42-12.18-24.02-29.83-26.1-48.62l-1.49-2.14c-.17,1.77.58,4.14-.64,5.52l-31.57,17.72-1.19-.49-118-117.46,19.17-33.71c-18.71-2.2-37.7-13.12-49.26-27.89-9,13.36-15.31,28.59-25.09,41.37l-179.73,48.52-2.84-.45-39.84-22.74c-.31-1.24-.05-2.53-.11-3.79l-1.47.64c-3,18.98-11.4,36.99-26.88,49.6l-.82,2.3,33.11,19.75-45.06,166.42-166.12,44.6-20.27-32.31-2.36.97c-11.9,14.89-29.86,24.05-48.71,26.09l-2.08,1.47,4.21.65,23.65,40.55c-15.59,60.1-31.66,120.12-48.27,179.96l-2.72,3.12c-13.08,7.26-25.76,15.5-39.1,22.17l.79,2.2c14.04,11.23,23.19,28.17,25.6,45.93l1.49,1.81,1.32.74,31.79-18.07c39.54,38.44,78.78,77.36,117.71,116.75-5.79,10.81-12.09,21.34-18.43,31.83-.85-.64-3.36-.67-3.4,1.04l2.06,1.47c19.12,2.03,37.29,11.77,49.38,26.77l2.36.95,1.28-.73c5.27-8.5,11.03-18.83,15.89-27.81.03-.05-.05-.55-.12-.9.13-.11.27-.23.45-.4l-.13-2.22c-13.92-28.84-18.9-57.67-22.36-89.09-.16-1.44-.83-2.76-1.49-4.03-1.2.93-1.74,2.04-1.64,3.35l-103.19-103.29c14.26-57.22,29.91-114.08,45.61-170.92,55.16-16.07,112.33-31.39,171.52-45.96,29.86,29.51,59.37,58.71,88.54,87.59-.71.12-.67.83-.54,1.59,1.53.49,3.12.95,4.74.92,26.24-.42,47.32-.15,73.17,6.26,24.94,6.19,43.13,15.33,65.28,27.71,1.41.79,3.02,1.14,4.6,1.43l2.65.62,109.21-29.87,1,.43c6.39,9.68,12.53,19.61,18.44,29.78l1.59.98,2.25-.78c11.75-14.14,28.87-23.78,47.1-26.26l1.86-1.5c-8.07-13.97-16.02-27.69-23.86-41.15l-.16-2.37,47.5-177.31c13.91-8.44,27.65-16.93,41.2-25.47ZM777.24,518.79l-172.78,46.1c-30.91-30.37-61.3-61.27-92-91.85-7.54-7.51-15.04-15.24-22.69-22.7-2.66-2.6-9.75-7.82-11.4-10.65-1.21-2.07,1.45-9.96,2.17-12.82,12.47-49.4,25.83-101.01,40.19-149.82.71-2.43,2.2-9.28,3.65-10.61,1.85-1.7,11.17-3.77,14.17-4.63,52.25-14.81,105.21-27.31,157.45-42.16l2.81,1.43c38.28,37.56,75.32,76.42,113.73,113.85,1.89,1.84,11.21,9.27,11.22,11.19l-46.52,172.67Z"/>
    <path class="cls-14" d="M672.87,606.01c132,87.31,132.95,282.38,1.94,370.97-13.32,9.01-28.42,17.49-43.43,23.35-107.57,41.96-231.16-4.74-282.61-107.66-14.38-28.77-22.76-63.32-23.98-95.34-.36-.61-.69-1.24-.93-1.89-2.19-5.93.46-26.83,1.5-34.26,12.23-86.89,79.49-163.13,164.03-186.32,7.2-1.98,27.57-7.27,33.69-5.85.68.16,1.34.41,1.99.68,51.9-4.69,104.43,7.65,147.79,36.32Z"/>
    <path class="cls-11" d="M805.75,607.96c11.44-15.24,32.08-26.91,51.21-28.54,80.64-6.86,111.65,99,43.86,136.96-69.19,38.74-142.8-44.81-95.07-108.42Z"/>
    <path class="cls-5" d="M277.47,893.32c20.41,1.27,41.6,12.58,53.8,29.19,46.15,62.84-24.61,145.47-93.77,108.42-68.76-36.83-39.24-142.54,39.97-137.61Z"/>
    <path class="cls-12" d="M2.65,780.48l3.05,12.18c1.77,3.81,2.89,8.05,4.72,11.81-.94,2.72.6,5.8.68,8.72"/>
    <path class="cls-8" d="M711.76,698.76l.11,1.43c-80.83,46.62-161.84,93.12-243.01,139.48-26.62,16.86-53.82,32.51-81.59,46.96l-1.55-1.74c-73.3-131.23,25.79-287.75,174.68-280.17,63.16,3.22,120.04,40.01,151.36,94.03Z"/>
    <path class="cls-3" d="M385.72,884.89c1.26,1.07,1.65.25,2.66-.22,31.79-15.11,62.3-37.1,93.49-53.72l229.9-132.19c49.36,85.14,24.12,193.45-56.57,248.54-90.6,61.86-216.1,33.15-269.47-62.4Z"/>
    <circle class="cls-3" cx="75.01" cy="770.81" r="75.01"/>
    <circle class="cls-5" cx="272.52" cy="968.17" r="75.01"/>
  </g>
  <circle class="cls-9" cx="177.55" cy="391.03" r="75.01"/>
  <circle class="cls-1" cx="391.43" cy="178.92" r="75.01"/>
  <circle class="cls-7" cx="769.57" cy="75.01" r="75.01"/>
  <circle class="cls-9" cx="968.37" cy="273.08" r="75.01"/>
  <rect class="cls-4" x="685.97" y="1016.63" width="120.05" height="259.49" rx="3.47" ry="3.47" transform="translate(-473.24 526.58) rotate(-30)"/>
  <path class="cls-4" d="M807.43,1252.61l-51.87,29.97c.21.38.42.75.64,1.11,12.13,19.99,45.24,22.41,73.34,5.36,28.1-17.05,41.24-47.54,29.11-67.53l-51.23,31.09Z"/>
</svg>