<?xml version="1.0" encoding="UTF-8"?>
<svg id="Camada_1" data-name="Camada 1" xmlns="http://www.w3.org/2000/svg" viewBox="0 0 1164.26 1165">
  <defs>
    <style>
      .cls-1 {
        fill: rgba(31, 47, 60, 0);
        stroke: #1f2f3c;
        stroke-width: 7px;
      }

      .cls-2 {
        fill: #1f2f3c;
      }
    </style>
  </defs>
  <path class="cls-1" d="M582.32,3.5C262.68,3.5,3.5,262.68,3.5,582.32c0,232.26,136.78,432.45,334.02,524.62,18.06-56.04,30.6-126.09,3.69-174.75-51.61-93.27-137.51-181.76-132.72-272.82,4.79-91.06,9.95-282.77-7.37-339.18-17.33-56.41,91.06-46.82,85.9,73.73-4.79,120.56,22.12,223.78,66.36,324.43,0,0-58.99-152.26-44.24-218.62,14.75-66.36,110.6,17.33,115.39,83.69s32.07,130.14,88.48,172.17c53.83,39.82,76.68,155.95,61.57,405.91h7.37c6.64,0,13.27,0,19.91-.37-15.12-249.59,7.37-365.72,61.57-405.54,56.41-41.66,83.69-105.81,88.48-172.17,4.79-66.36,100.65-150.05,115.39-83.69,14.75,66.36-44.24,218.62-44.24,218.62,44.24-100.65,71.15-203.88,66.36-324.43-4.79-120.56,103.23-130.14,85.9-73.73-17.33,56.41-12.17,248.12-7.37,339.18,4.79,91.06-81.11,179.54-132.72,272.82-26.18,47.19-15.12,114.66,2.21,169.59,191.34-94.38,323.33-291.62,323.33-519.46C1161.13,262.68,901.95,3.5,582.32,3.5Z"/>
  <path class="cls-2" d="M722.41,149.49c-39.82,0-56.41,12.17-89.22,51.25l-51.25,60.83-50.88-60.83c-32.81-39.08-49.4-51.25-89.22-51.25-6.64,0-13.64.37-21.01,1.11-27.65,2.58-70.42,32.07-77.05,102.12v29.13c8.11,87.74,88.48,188.76,238.53,300.47,150.42-111.71,230.42-212.72,238.53-300.47v-29.13c-6.64-70.05-49.4-99.17-77.05-102.12-7.74-.74-14.75-1.11-21.38-1.11h0Z"/>
</svg>