<?xml version="1.0" encoding="UTF-8"?>
<svg id="Camada_1" xmlns="http://www.w3.org/2000/svg" version="1.1" viewBox="0 0 4096 4096">
  <!-- Generator: Adobe Illustrator 29.5.1, SVG Export Plug-In . SVG Version: 2.1.0 Build 141)  -->
  <defs>
    <style>
      .st0 {
        font-family: Lora-Regular, Lora;
        font-size: 238.37px;
        letter-spacing: .27em;
      }
    </style>
  </defs>
  <g>
    <path d="M2259.56,822.88c-.85,7.08-.97,15.67-5.7,19.43l-.19.15c-7.6,6-23.19,4.47-28.8-4.97-49.77-200.45-124.33-410.23-300.6-532.96-407.36-281.7-1078.65-45.13-918.86,516.3,66.06,192.24,252.76,285.28,412.3,392.86,227.56,153.03,461.35,296.07,680.39,461.69,156.42,125.5,306.9,300.08,299.98,512.06-4.39,235.8-126.65,438.66-336.84,552.64-12.82,7.48-49.97,21.11-49.94,32.35.18,62.68,3.25,498.79,4.42,558.33.1,5.24,4.7,5.66,10.35,6.7,15.82,2.27,33.88,5.1,50.18,5.5,149.69,6.26,319.04,9.78,471.17-4.46,158.53-16.41,316.19-67.23,414.91-197.54,251.2-348.36,87.34-904.94-370.39-949.53-35.5-4.39-71.26-7.17-105.48-10.72-4.14-.45-8.88-1.15-12.29-3.28-12.64-9.15-8.33-37.68-4.52-48.78,4.26-10.97,18.21-11.31,28.12-13.98,11.08-2.12,20.84-5.25,31.28-9.22,201.48-72.75,309.97-223.81,330.71-420.69,35.88-266.61-110.36-495.44-384.93-523.83-139.13-15.67-311.67-7.3-451.72-.93-18.4,2.75-13.45,31.84-13.45,31.84l2.46,321.73s-1.67,27.26-15.64,25.04c-5.41-.55-11.31-3.21-16.19-5.92-36.68-21.09-72.39-44.11-108.08-66.69-35.51-22.63-89.93-53.38-127.94-83.59-30.21-20.86-19.72-62.07-25.8-93.34-7.45-40.02-20.92-82.1-48.95-112.44-17.27-17.17-40.63-25.44-63.66-32.26-11.87-3.83-25.6-5.84-38.71-8.39-10.66-2.71-24.56-2.79-30.64-10.96-4.69-8.86-3.09-22.68-1.35-35.02.77-4.25,2.5-8.51,6.36-10.57,3.03-1.61,7.28-2.14,10.99-2.37l234.64-3.23s460.39-5.27,688.45,4.04c289.37,9.18,671.44,145.66,689.77,485.5,21.66,234.45-130.57,421.18-337.21,517.44-14.66,7.46-29.8,13.07-45.21,19.07-6.56,3.78-18.97,5.43-21.48,13.13-.25,10.25,9.94,15.27,20.05,19.9,12.92,5.27,29.66,8.28,44.39,10.72,131.27,26.3,257.19,80.58,352.27,159.28,288.1,235.94,280.12,681.58-4.59,919.36-262.45,209.97-580.29,204.58-899.85,201.63-120.37-.46-361.49-.11-361.49-.11l-362.9-8.78s15.01,3.21,0,0c-23.05-3.94-23.59-22.57-22.9-45.81.46-15.43,25.12-15.78,39.62-18.49,11.07-1.8,21.93-3.11,31.99-6.61,21.44-8.09,43.42-31.98,60.38-49.14,46.94-50.17,61.66-116.33,64.79-182.7,0,0,.5-1232.59.6-1235.45.42-12.54,2.28-25.94,16.86-17.95,19.45,10,0,0,0,0h0s232.21,159.37,257.67,197.91c7.89,11.95,11.78,36.14,12.39,52.09.15,32.69.41,380.63.67,493.71.1,1.44,1.6,2.27,2.91,3.15,16.76,8.68,29.85-14.63,38.19-26.22,81.29-126.68,89.4-326.92,21.64-454.68-318.9-520.6-1426.72-645.16-1328.99-1419.33C830.84,142.19,1587.57-54.83,2031.37,201.26c60.62,30.75,124.33,71.15,183.51,110.79,11.57,8.15,22.74,17.71,30.54,29.39,4.77,7.1,8.22,15.29,9.93,24.12"/>
    <path d="M706.67,1941.8c3.7-14.04,5.62-25.54,16-26.65l.23.04c13.11,4.5,17.38,42.17,21.66,56.45,34.99,232.14,140.15,474.26,305.03,644.17,121.64,112.86,299.4,175.82,464.87,189.16,45.13,2.72,87.26,4.6,143.44,3.53,18.24-.35,21.32,25.03,19.64,40.22-.93,14.19-11.14,27.77-25.47,28.63-369.42,22.23-617.36-35.5-932.18-227.02-8.52-4.74-14.01-11.69-14.61-21.24"/>
  </g>
  <text class="st0" transform="translate(676.97 3882.34)"><tspan x="0" y="0">SARITA BONETTE</tspan></text>
</svg>