<?xml version="1.0" encoding="UTF-8"?>
<svg id="Camada_1" xmlns="http://www.w3.org/2000/svg" version="1.1" viewBox="0 0 7472 5211.85">
  <!-- Generator: Adobe Illustrator 29.5.1, SVG Export Plug-In . SVG Version: 2.1.0 Build 141)  -->
  <defs>
    <style>
      .st0, .st1 {
        isolation: isolate;
      }

      .st2 {
        fill: #5c7c63;
      }

      .st1 {
        font-family: Lora-Regular, Lora;
        font-size: 612px;
        letter-spacing: .27em;
      }
    </style>
  </defs>
  <g>
    <path class="st2" d="M3991.75,971.52c-1.1,9.18-1.26,20.33-7.4,25.21l-.25.2c-9.86,7.79-30.09,5.81-37.37-6.46-64.59-260.12-161.35-532.35-390.08-691.61-528.62-365.55-1399.74-58.56-1192.38,669.99,85.72,249.47,328,370.2,535.03,509.81,295.31,198.58,598.68,384.2,882.93,599.13,202.99,162.86,398.26,389.4,389.28,664.49-5.7,305.99-164.35,569.24-437.12,717.15-16.64,9.7-64.85,27.39-64.81,41.98.23,81.34,4.21,647.26,5.73,724.54.13,6.81,6.09,7.35,13.43,8.69,20.53,2.94,43.97,6.62,65.12,7.13,194.25,8.12,414.01,12.69,611.43-5.79,205.73-21.29,410.32-87.24,538.42-256.34,325.98-452.06,113.34-1174.32-480.64-1232.19-46.06-5.7-92.48-9.3-136.88-13.91-5.38-.58-11.52-1.5-15.95-4.25-16.4-11.88-10.81-48.89-5.86-63.3,5.53-14.24,23.63-14.67,36.5-18.15,14.38-2.75,27.04-6.81,40.6-11.97,261.46-94.4,402.25-290.44,429.15-545.92,46.56-345.97-143.22-642.92-499.52-679.76-180.55-20.34-404.45-9.47-586.19-1.21-23.88,3.57-17.46,41.32-17.46,41.32l3.2,417.5s-2.17,35.37-20.3,32.49c-7.02-.72-14.68-4.17-21.01-7.68-47.6-27.37-93.94-57.25-140.26-86.54-46.08-29.37-116.7-69.28-166.03-108.47-39.2-27.08-25.6-80.55-33.48-121.13-9.67-51.93-27.15-106.55-63.52-145.91-22.41-22.29-52.72-33.01-82.6-41.86-15.41-4.98-33.22-7.57-50.23-10.88-13.83-3.52-31.87-3.61-39.77-14.22-6.08-11.49-4.01-29.43-1.76-45.44,1-5.52,3.25-11.04,8.26-13.71,3.93-2.1,9.45-2.78,14.26-3.08l304.49-4.2s597.44-6.84,893.39,5.24c375.5,11.91,871.31,189.02,895.1,630.02,28.11,304.24-169.43,546.55-437.59,671.47-19.02,9.68-38.67,16.96-58.67,24.75-8.52,4.91-24.62,7.05-27.87,17.04-.32,13.3,12.9,19.81,26.02,25.83,16.77,6.84,38.49,10.75,57.61,13.92,170.34,34.13,333.75,104.57,457.14,206.7,373.86,306.18,363.51,884.48-5.96,1193.03-340.57,272.48-753.03,265.48-1167.71,261.65-156.21-.6-469.1-.15-469.1-.15l-470.93-11.4s19.47,4.16,0,0c-29.91-5.11-30.61-29.29-29.72-59.44.59-20.02,32.6-20.48,51.42-24,14.37-2.34,28.46-4.04,41.51-8.58,27.82-10.5,56.35-41.5,78.36-63.77,60.91-65.11,80.02-150.96,84.08-237.09,0,0,.65-1599.51.77-1603.23.54-16.27,2.95-33.67,21.87-23.3,25.24,12.98,0,0,0,0h0s301.33,206.81,334.37,256.82c10.24,15.5,15.29,46.9,16.08,67.6.2,42.42.53,493.93.86,640.68.13,1.87,2.08,2.94,3.77,4.09,21.75,11.27,38.73-18.99,49.56-34.03,105.49-164.38,116.01-424.24,28.08-590.03-413.83-675.57-1851.43-837.21-1724.6-1841.84,111.17-730.97,1093.16-986.63,1669.08-654.31,78.66,39.91,161.34,92.33,238.14,143.77,15.01,10.58,29.51,22.98,39.64,38.14,6.19,9.22,10.67,19.84,12.88,31.3"/>
    <path class="st2" d="M1976.59,2423.51c4.81-18.21,7.29-33.15,20.76-34.59l.29.05c17.02,5.84,22.55,54.72,28.11,73.25,45.4,301.24,181.88,615.44,395.83,835.93,157.84,146.46,388.52,228.15,603.25,245.47,58.57,3.52,113.23,5.97,186.15,4.58,23.68-.45,27.66,32.48,25.49,52.19-1.21,18.42-14.45,36.03-33.05,37.15-479.39,28.84-801.14-46.07-1209.67-294.6-11.05-6.15-18.18-15.17-18.96-27.57"/>
  </g>
  <g class="st0">
    <text class="st1" transform="translate(153.24 5110.85)"><tspan x="0" y="0">SARITA BONETTE</tspan></text>
  </g>
</svg>